<svg version="1" xmlns="http://www.w3.org/2000/svg" width="541.333" height="541.333" viewBox="0 0 406.000000 406.000000"><path d="M21.7 2.4C11.8 6 3.2 15.9 1 26.3.3 29.9.1 84.9.2 206.5l.3 175 2.2 4.7c3 6.6 9.6 13.3 16.2 16.5l5.6 2.8h357l5.6-2.8c6.6-3.2 13.2-9.9 16.2-16.5l2.2-4.7v-356l-2.3-4.9c-3.3-7.2-8.2-12.7-14.3-16.1l-5.4-3-179-.2C55.7 1.1 24.9 1.3 21.7 2.4zm88.8 156.8c3.9 1.1 9 3.2 11.5 4.6 5.7 3.3 17 12.2 17 13.5 0 1.1-4.8 7.1-12.1 15.1l-5.1 5.6-4.3-4.4c-16.5-17-43.5-12.6-53 8.6-7.1 15.7-.8 33.9 14.7 42.3 4.1 2.2 6.9 2.9 12.8 3.3 9.8.5 16.5-1.9 24.4-9l5.8-5.1 9.1 9.2 9.2 9.2-5.9 5.4c-16.6 15-36.9 20.4-56.6 15.1-17.6-4.7-34.7-21.2-40.1-38.5-6.9-22.3-.8-45.7 15.9-61.3 16.1-15.1 35.5-19.7 56.7-13.6zm68.5 29.7v32.8l3.5 7c8.4 16.8 22.7 22.9 40.8 17.3 7.5-2.3 12.2-6.5 17.7-15.6l3.5-5.8.3-34.3.3-34.3h25.8l.3 33.7.3 33.8 2.8 5.4c8.5 16 22.4 22.3 38.8 17.5 8.2-2.4 12.1-5 16.4-10.9 7.4-10.1 7.4-10.1 7.4-46.8l.1-32.7h26v33.8c0 27.1-.3 34.9-1.5 39.7-5.9 22.5-23.9 39.5-47 44.2-17.9 3.6-38-2.5-50.9-15.5l-4.9-4.9-7.1 5.9c-11.6 9.8-21.8 14.1-36.1 15.4-24.8 2.1-53.2-16.8-60.5-40.3-1.8-6-2-9.3-2-42.4V156h26v32.9z"/></svg>